<?xml version="1.0" encoding="utf-8"?>
<!-- Svg Vector Icons : http://www.onlinewebfonts.com/icon -->
<!DOCTYPE svg PUBLIC "-//W3C//DTD SVG 1.1//EN" "http://www.w3.org/Graphics/SVG/1.1/DTD/svg11.dtd">
<svg version="1.1" xmlns="http://www.w3.org/2000/svg" xmlns:xlink="http://www.w3.org/1999/xlink" x="0px" y="0px" viewBox="0 0 1000 1000" enable-background="new 0 0 1000 1000" xml:space="preserve">
<metadata> Svg Vector Icons : http://www.onlinewebfonts.com/icon </metadata>
<g><g transform="translate(0.000000,512.000000) scale(0.100000,-0.100000)"><path fill="#FFF" d="M1247.6,5004.9c-689.8-145.6-1195.7-795.2-1144-1469.7c32.6-427.3,413.9-1216.8,1071.2-2222.8c130.3-201.2,224.2-325.7,254.8-339.2c61.3-28.7,153.3-28.7,205-1.9c42.1,23,348.7,482.9,578.7,868c473.3,789.5,716.7,1356.7,735.8,1709.2c34.5,651.5-375.6,1222.5-1021.3,1425.6C1757.3,5026,1425.8,5041.3,1247.6,5004.9z M1678.7,4610.2c161-23,398.6-134.1,528.9-249.1c184-157.1,314.3-423.5,335.3-678.3c9.6-105.4,3.8-168.6-26.8-283.6c-101.6-366-452.2-1050.1-896.8-1743.7l-88.1-138l-36.4,47.9c-97.7,130.3-526.9,871.9-678.3,1174.6c-220.4,438.8-302.8,676.4-302.8,873.8c-1.9,442.6,304.7,845,733.9,965.8C1429.6,4629.3,1500.5,4635.1,1678.7,4610.2z"/><path fill="#FFF" d="M1305.1,4175.2c-122.6-44.1-308.5-233.8-350.7-358.3c-138-406.2,151.4-824,571-824c241.4,0,440.7,126.5,550,348.7c118.8,239.5,69,509.7-128.4,701.3C1789.9,4196.3,1521.6,4251.9,1305.1,4175.2z M1630.8,3772.8c164.8-97.7,103.5-369.8-84.3-369.8c-90.1,0-151.4,30.7-189.7,95.8c-53.7,88.1-42.2,166.7,32.6,241.4C1464.1,3815,1542.7,3826.5,1630.8,3772.8z"/><path fill="#FFF" d="M2253.6,1329.7c-70.9-38.3-105.4-99.6-105.4-183.9c0-65.2,11.5-93.9,53.7-136c57.5-57.5,51.7-57.5,599.8-90.1c193.5-11.5,203.1-11.5,252.9,32.6c105.4,92,97.7,260.6-15.3,325.8C2935.8,1339.3,2339.8,1377.6,2253.6,1329.7z"/><path fill="#FFF" d="M3648.6,1071c-72.8-13.4-139.9-113.1-139.9-205c0-90.1,34.5-132.2,191.6-231.9c147.5-92,264.4-199.3,364.1-333.4c128.4-174.4,206.9-207,327.7-143.7c70.9,34.5,118.8,139.9,101.6,214.6c-28.7,115-241.4,367.9-435,511.6C3845.9,1044.2,3744.4,1090.2,3648.6,1071z"/><path fill="#FFF" d="M7896.7,938.8c-436.9-55.6-814.4-231.9-1109.5-521.2c-423.5-417.7-626.6-1007.9-530.8-1554c103.5-592.1,626.6-1755.2,1446.7-3209.6c208.8-373.7,260.6-433.1,366-433.1s157.1,59.4,366,433.1c749.2,1329.8,1237.9,2385.6,1410.3,3041c69,262.5,72.8,590.2,9.6,845C9684.5,222.1,9132.7,758.7,8450.5,902.4C8310.6,933,8006,952.2,7896.7,938.8z M8381.5,498.1c76.7-17.2,216.5-67.1,310.4-113.1c618.9-300.8,931.3-975.4,749.2-1628.7c-109.2-394.7-323.8-904.5-691.7-1638.3c-258.7-519.3-659.2-1264.7-680.2-1264.7c-19.2,0-421.6,745.4-676.4,1255.1c-458,914-701.3,1538.7-751.2,1918.1c-17.2,136.1,21.1,389,88.1,571c161,442.6,540.4,781.8,1002.2,894.9C7906.3,534.5,8201.4,538.3,8381.5,498.1z"/><path fill="#FFF" d="M7896.7,114.8c-233.8-44.1-496.3-205-634.2-390.9c-153.3-205-208.9-371.8-208.9-624.7c0-563.4,450.3-1011.7,1015.6-1011.7c467.6,0,852.7,297,986.8,762.6c44.1,151.4,32.6,436.9-24.9,592.1c-105.4,289.3-331.5,515.5-626.6,624.7C8291.5,109.1,8009.8,135.9,7896.7,114.8z M8312.6-333.6c116.9-51.7,262.5-195.4,314.2-312.3c67.1-151.4,65.2-367.9-7.7-515.5c-57.5-118.8-159-220.4-285.5-287.4c-69-36.4-111.1-44.1-264.4-44.1c-153.3,0-195.4,7.7-264.4,44.1c-126.5,67.1-228,168.6-285.5,287.4c-72.8,145.6-76.7,366-9.6,511.6c78.6,170.5,256.8,318.1,427.3,354.5C8048.1-274.2,8212.9-289.5,8312.6-333.6z"/><path fill="#FFF" d="M4455.3-283.8c-74.7-74.7-78.6-113-36.4-314.2c15.3-72.8,40.2-260.6,59.4-417.8c17.2-166.7,42.1-304.7,59.4-329.6c15.3-24.9,57.5-57.5,95.8-72.8c134.1-57.5,274,40.3,274,191.6c0,109.2-51.7,523.1-90.1,720.5c-26.8,136-42.1,174.4-93.9,226.1C4637.3-193.7,4545.4-193.7,4455.3-283.8z"/><path fill="#FFF" d="M4625.8-1914.4l-69-69l13.4-185.8c19.2-274,86.2-712.8,118.8-781.8c74.7-157.1,308.5-141.8,373.7,28.8c11.5,28.8,7.6,95.8-11.5,195.4c-15.3,84.3-42.1,279.8-57.5,435c-32.6,320-49.8,377.5-126.5,415.8C4775.3-1828.2,4700.6-1839.7,4625.8-1914.4z"/><path fill="#FFF" d="M5047.4-3449.3c-74.7-36.4-126.4-138-109.2-212.7c55.6-226.1,572.9-753.1,741.6-753.1c67.1,0,159.1,46,185.9,93.9c21.1,42.1,24.9,155.2,7.7,203.1c-7.7,17.2-74.7,76.6-149.5,132.2c-149.5,111.1-274,245.3-381.3,415.8c-47.9,74.7-88.1,115-130.3,130.3C5133.6-3412.9,5122.1-3412.9,5047.4-3449.3z"/><path fill="#FFF" d="M6319.7-4338.4c-72.8-57.5-99.6-153.3-63.2-235.7c15.3-38.3,47.9-80.5,72.8-95.8c63.2-42.2,394.7-90.1,714.7-103.5l275.9-11.5l67.1,67.1c76.7,76.6,88.1,151.4,40.2,243.4c-38.3,74.7-101.6,93.9-354.5,107.3c-120.7,7.7-306.6,24.9-410.1,40.2C6413.6-4292.4,6379.1-4292.4,6319.7-4338.4z"/></g></g>
</svg>